<svg width="42" height="40" viewBox="0 0 42 40" fill="none" xmlns="http://www.w3.org/2000/svg">
<path d="M14 6.37646H6.125V8.12646H14V6.37646Z" fill="white"/>
<path d="M20.125 6.37646H15.75V8.12646H20.125V6.37646Z" fill="white"/>
<path d="M14 19.5015H6.125V21.2515H14V19.5015Z" fill="white"/>
<path d="M20.125 19.5015H15.75V21.2515H20.125V19.5015Z" fill="white"/>
<path d="M11.375 15.1257H6.125V16.8757H11.375V15.1257Z" fill="white"/>
<path d="M28 15.1257H25.375V16.8757H28V15.1257Z" fill="white"/>
<path d="M23.625 15.1257H13.125V16.8757H23.625V15.1257Z" fill="white"/>
<path d="M21 10.75H17.5V12.5H21V10.75Z" fill="white"/>
<path d="M15.75 10.75H6.125V12.5H15.75V10.75Z" fill="white"/>
<path d="M35.875 10.75H22.75V12.5H35.875V10.75Z" fill="white"/>
<path d="M19.25 23.875H6.125V25.625H19.25V23.875Z" fill="white"/>
<path d="M33.4312 18.4453L32.1938 19.6826L34.6377 22.1265L32.1938 24.5703L33.4312 25.8076L37.1123 22.1265L33.4312 18.4453Z" fill="white"/>
<path d="M26.4312 19.6826L25.1938 18.4453L21.5127 22.1265L25.1938 25.8076L26.4312 24.5703L23.9873 22.1265L26.4312 19.6826Z" fill="white"/>
<path d="M30.2486 17.4342L26.7515 26.1851L28.3765 26.8345L31.8736 18.0837L30.2486 17.4342Z" fill="white"/>
<path d="M40.25 28.2507V2.00073H1.75V28.2507H0V32.0156L2.15674 35.2507H39.8433L42 32.0156V28.2507H40.25ZM3.5 3.75073H38.5V28.2507H3.5V3.75073ZM40.25 31.4858L38.9067 33.5007H3.09326L1.75 31.4858V30.0007H40.25V31.4858Z" fill="white"/>
<path d="M25.375 30.8757H23.625V32.6257H25.375V30.8757Z" fill="white"/>
<path d="M21.875 30.8757H20.125V32.6257H21.875V30.8757Z" fill="white"/>
<path d="M18.375 30.8757H16.625V32.6257H18.375V30.8757Z" fill="white"/>
</svg>
