<svg width="38" height="38" viewBox="0 0 38 38" fill="none" xmlns="http://www.w3.org/2000/svg">
<path d="M38 32.4583V0H0V32.4583H11.875V36.4167H8.70833V38H29.2917V36.4167H26.125V32.4583H38ZM1.58333 1.58333H36.4167V26.125H1.58333V1.58333ZM24.5417 36.4167H13.4583V32.4583H24.5417V36.4167ZM1.58333 30.875V27.7083H36.4167V30.875H1.58333Z" fill="white"/>
<path d="M31.6668 6.33325H30.0835V7.91659H31.6668V6.33325Z" fill="white"/>
<path d="M28.4998 6.33325H26.9165V7.91659H28.4998V6.33325Z" fill="white"/>
<path d="M22.9582 6.33325H7.9165V7.91659H22.9582V6.33325Z" fill="white"/>
<path d="M12.6304 14.0273L11.5029 17.8647L10.8879 15.9126H9.37797L8.76296 17.8647L7.63537 14.0273L6.11621 14.4734L7.97748 20.8068L9.492 20.8215L10.1329 18.7862L10.7742 20.8215L12.2887 20.8068L14.1496 14.4734L12.6304 14.0273Z" fill="white"/>
<path d="M21.4976 14.0273L20.3701 17.8647L19.755 15.9126H18.2452L17.6301 17.8647L16.5026 14.0273L14.9834 14.4734L16.8447 20.8068L18.3592 20.8215L19.0001 18.7866L19.641 20.8215L21.1555 20.8068L23.0168 14.4734L21.4976 14.0273Z" fill="white"/>
<path d="M30.3635 14.0273L29.2359 17.8647L28.6213 15.9126H27.1114L26.4964 17.8647L25.3688 14.0273L23.8496 14.4734L25.7105 20.8068L27.225 20.8215L27.8663 18.7862L28.5072 20.8215L30.0217 20.8068L31.8826 14.4734L30.3635 14.0273Z" fill="white"/>
<path d="M3.1665 3.16675V24.5417H34.8332V3.16675H3.1665ZM33.2498 22.9584H4.74984V11.0834H33.2498V22.9584ZM33.2498 9.50008H4.74984V4.75008H33.2498V9.50008Z" fill="white"/>
</svg>
